<svg width="24" height="24" viewBox="0 0 24 24" fill="none" xmlns="http://www.w3.org/2000/svg">
<path d="M18.009 13.5145C16.238 16.1413 13.61 18.7321 10.65 18.31C9.849 19.5307 8.955 21.2357 7.962 23.2146L5.666 24C7.609 19.8656 10.203 15.2937 12.986 11.8192C11.781 12.6756 9.801 14.517 8.078 16.4588C6.524 12.9178 8.163 9.63749 10.536 7.13393C10.469 8.31317 10.949 9.38986 11.308 9.94294C11.246 8.95678 11.352 7.19392 12.012 5.66669C13.335 4.44927 14.504 3.57221 15.841 2.80641C15.624 3.6693 15.808 4.70345 16.063 5.34925C16.179 4.45473 16.666 2.76605 17.23 2.0657C18.897 0.893009 21.365 -0.0462375 24 0.00176121C23.709 1.77226 22.857 4.64672 21.706 6.43031C20.777 7.08156 19.549 7.46228 18.569 7.64664C19.38 7.89536 20.288 7.96627 21.078 7.903C20.503 9.21969 19.921 10.424 19.039 11.9022C17.823 12.6429 16.269 12.969 15.207 13.0312C15.95 13.4556 17.304 13.7043 18.009 13.5145ZM4 22.9091H0V24H4V22.9091Z" fill="#E8704A"/>
</svg>
